<svg width="39" height="19" viewBox="0 0 39 19" fill="none" xmlns="http://www.w3.org/2000/svg">
<path d="M8.39844 0.902344V18H5.02344V4.79297L0.96875 6.08203V3.42188L8.03516 0.902344H8.39844ZM25.4492 13.3242C25.4492 14.3945 25.1992 15.2969 24.6992 16.0312C24.1992 16.7578 23.5117 17.3086 22.6367 17.6836C21.7695 18.0508 20.7852 18.2344 19.6836 18.2344C18.582 18.2344 17.5938 18.0508 16.7188 17.6836C15.8438 17.3086 15.1523 16.7578 14.6445 16.0312C14.1367 15.2969 13.8828 14.3945 13.8828 13.3242C13.8828 12.6055 14.0273 11.957 14.3164 11.3789C14.6055 10.793 15.0078 10.293 15.5234 9.87891C16.0469 9.45703 16.6602 9.13672 17.3633 8.91797C18.0664 8.69141 18.832 8.57812 19.6602 8.57812C20.7695 8.57812 21.7617 8.77344 22.6367 9.16406C23.5117 9.55469 24.1992 10.1055 24.6992 10.8164C25.1992 11.5273 25.4492 12.3633 25.4492 13.3242ZM22.0508 13.1016C22.0508 12.5781 21.9492 12.1289 21.7461 11.7539C21.5508 11.3711 21.2734 11.0781 20.9141 10.875C20.5547 10.6719 20.1367 10.5703 19.6602 10.5703C19.1836 10.5703 18.7656 10.6719 18.4062 10.875C18.0469 11.0781 17.7656 11.3711 17.5625 11.7539C17.3672 12.1289 17.2695 12.5781 17.2695 13.1016C17.2695 13.6172 17.3672 14.0625 17.5625 14.4375C17.7656 14.8125 18.0469 15.1016 18.4062 15.3047C18.7734 15.5 19.1992 15.5977 19.6836 15.5977C20.168 15.5977 20.5859 15.5 20.9375 15.3047C21.2969 15.1016 21.5703 14.8125 21.7578 14.4375C21.9531 14.0625 22.0508 13.6172 22.0508 13.1016ZM25.0859 5.46094C25.0859 6.32812 24.8555 7.09766 24.3945 7.76953C23.9336 8.43359 23.293 8.95312 22.4727 9.32812C21.6602 9.70312 20.7305 9.89062 19.6836 9.89062C18.6289 9.89062 17.6914 9.70312 16.8711 9.32812C16.0508 8.95312 15.4102 8.43359 14.9492 7.76953C14.4883 7.09766 14.2578 6.32812 14.2578 5.46094C14.2578 4.42969 14.4883 3.5625 14.9492 2.85938C15.418 2.14844 16.0586 1.60937 16.8711 1.24219C17.6914 0.875 18.6211 0.691406 19.6602 0.691406C20.7148 0.691406 21.6484 0.875 22.4609 1.24219C23.2812 1.60937 23.9219 2.14844 24.3828 2.85938C24.8516 3.5625 25.0859 4.42969 25.0859 5.46094ZM21.7109 5.61328C21.7109 5.15234 21.6289 4.75391 21.4648 4.41797C21.3008 4.07422 21.0664 3.80859 20.7617 3.62109C20.4648 3.43359 20.0977 3.33984 19.6602 3.33984C19.2383 3.33984 18.875 3.42969 18.5703 3.60938C18.2734 3.78906 18.043 4.05078 17.8789 4.39453C17.7227 4.73047 17.6445 5.13672 17.6445 5.61328C17.6445 6.07422 17.7227 6.48047 17.8789 6.83203C18.043 7.17578 18.2773 7.44531 18.582 7.64062C18.8867 7.83594 19.2539 7.93359 19.6836 7.93359C20.1133 7.93359 20.4766 7.83594 20.7734 7.64062C21.0781 7.44531 21.3086 7.17578 21.4648 6.83203C21.6289 6.48047 21.7109 6.07422 21.7109 5.61328ZM38.9141 8.49609V11.4375H27.2188V8.49609H38.9141ZM34.6719 3.86719V16.2891H31.4727V3.86719H34.6719Z" fill="#AEBFB7"/>
</svg>
