<svg width="32" height="32" viewBox="0 0 32 32" fill="none" xmlns="http://www.w3.org/2000/svg">
<rect width="32" height="32" rx="3" fill="#262B31"/>
<path d="M8.24106 15.7541C8.53326 16.0522 8.99051 16.0793 9.31272 15.8354L9.40503 15.7541L16 9.02658L22.595 15.7541C22.8872 16.0522 23.3444 16.0793 23.6666 15.8354L23.7589 15.7541C24.0511 15.456 24.0777 14.9896 23.8386 14.661L23.7589 14.5668L16.582 7.2459C16.2898 6.94784 15.8325 6.92074 15.5103 7.16461L15.418 7.2459L8.24106 14.5668C7.91965 14.8947 7.91965 15.4262 8.24106 15.7541Z" fill="white"/>
<path d="M8.24106 23.7541C8.53326 24.0522 8.99051 24.0793 9.31272 23.8354L9.40503 23.7541L16 17.0266L22.595 23.7541C22.8872 24.0522 23.3444 24.0793 23.6666 23.8354L23.7589 23.7541C24.0511 23.456 24.0777 22.9896 23.8386 22.661L23.7589 22.5668L16.582 15.2459C16.2898 14.9478 15.8325 14.9207 15.5103 15.1646L15.418 15.2459L8.24106 22.5668C7.91965 22.8947 7.91965 23.4262 8.24106 23.7541Z" fill="white"/>
</svg>
