<svg width="20" height="20" viewBox="0 0 20 20" fill="none" xmlns="http://www.w3.org/2000/svg">
<g clip-path="url(#clip0_4574_13396)">
<path d="M7.35362 17.3536C9.94917 17.3536 12.0608 15.242 12.0608 12.6464C12.0608 10.0509 9.94917 7.93921 7.35362 7.93921C4.75807 7.93921 2.64642 10.0509 2.64642 12.6464C2.64642 15.242 4.75807 17.3536 7.35362 17.3536ZM5.44483 11.3232C5.44483 10.2707 6.3011 9.41442 7.35362 9.41442C8.40615 9.41442 9.26245 10.2707 9.26245 11.3232C9.26245 11.8366 9.05831 12.303 8.72745 12.6464C9.05835 12.9898 9.26245 13.4562 9.26245 13.9696C9.26245 15.0221 8.40615 15.8784 7.35362 15.8784C6.3011 15.8784 5.44483 15.0221 5.44483 13.9696C5.44483 13.4562 5.64893 12.9898 5.97984 12.6464C5.64893 12.303 5.44483 11.8366 5.44483 11.3232Z" fill="#2A7F00"/>
<path d="M7.35362 12.0608C7.76034 12.0608 8.09124 11.7299 8.09124 11.3232C8.09124 10.9165 7.76034 10.5856 7.35362 10.5856C6.94693 10.5856 6.61603 10.9165 6.61603 11.3232C6.61603 11.7299 6.94689 12.0608 7.35362 12.0608Z" fill="#2A7F00"/>
<path d="M7.35362 13.2321C6.94693 13.2321 6.61603 13.563 6.61603 13.9696C6.61603 14.3763 6.94693 14.7072 7.35362 14.7072C7.76034 14.7072 8.09124 14.3763 8.09124 13.9696C8.09124 13.563 7.76034 13.2321 7.35362 13.2321Z" fill="#2A7F00"/>
<path d="M7.35362 20C11.4084 20 14.7072 16.7012 14.7072 12.6464C14.7072 8.59165 11.4084 5.29279 7.35362 5.29279C3.29886 5.29279 0 8.59161 0 12.6464C0 16.7012 3.29882 20 7.35362 20ZM7.35362 6.76796C10.595 6.76796 13.232 9.40501 13.232 12.6464C13.232 15.8877 10.595 18.5248 7.35362 18.5248C4.11226 18.5248 1.47521 15.8877 1.47521 12.6464C1.47521 9.40501 4.11226 6.76796 7.35362 6.76796Z" fill="#2A7F00"/>
<path d="M15.9339 4.06611C16.9485 5.08072 18.3383 5.56666 19.7418 5.421C19.059 2.91688 17.0831 0.941014 14.5789 0.25824C14.4332 1.66166 14.9191 3.05133 15.9339 4.06611Z" fill="#2A7F00"/>
<path d="M15.1057 4.89424C13.8148 3.60326 13.2095 1.82665 13.4251 0.0412265C13.1691 0.0141716 12.9094 0 12.6464 0C9.73974 0 7.17851 1.66284 5.98462 4.23091C6.43315 4.15892 6.89047 4.12159 7.3536 4.12159C9.63066 4.12159 11.7714 5.00832 13.3815 6.61845C14.9917 8.22855 15.8784 10.3693 15.8784 12.6464C15.8784 13.1095 15.8411 13.5668 15.7691 14.0154C18.3371 12.8215 20 10.2602 20 7.35358C20 7.09064 19.9858 6.83099 19.9588 6.57512C19.7219 6.60369 19.4853 6.6183 19.25 6.6183C17.7105 6.6183 16.2254 6.01391 15.1057 4.89424Z" fill="#2A7F00"/>
</g>
<defs>
<clipPath id="clip0_4574_13396">
<rect width="20" height="20" fill="white"/>
</clipPath>
</defs>
</svg>
