<svg width="70" height="40" viewBox="0 0 70 40" fill="none" xmlns="http://www.w3.org/2000/svg">
<g clip-path="url(#clip0_4574_13328)">
<path d="M70 0H0V40H70V0Z" fill="#E87722"/>
<path d="M24.4347 12.2026C24.7054 12.2026 24.9387 12.4379 24.9387 12.6779V23.4543C24.9387 23.7602 24.7707 24.0661 24.5374 24.2685C22.5214 25.9955 19.432 27.012 16.2027 27.012C8.94602 27.012 4.10669 22.132 4.10669 14.8143C4.10669 7.4967 8.94602 2.6167 16.2027 2.6167C18.69 2.6167 21.308 3.36023 23.2587 4.58376C23.5294 4.72023 23.6274 4.98846 23.562 5.19552L21.882 10.1743C21.7794 10.4096 21.546 10.5132 21.2427 10.4473C19.866 9.70376 18.0834 9.26141 16.4034 9.26141C13.314 9.26141 11.228 11.4967 11.228 14.8191C11.228 18.1414 13.3094 20.4426 16.4034 20.4426C17.6447 20.4426 18.4847 20.2073 18.858 19.7979V17.8308H15.7687C15.4654 17.8308 15.2647 17.6943 15.232 17.4591L14.7934 12.7814C14.7607 12.4426 14.9614 12.2073 15.33 12.2073H24.4347V12.2026Z" fill="white"/>
<path d="M45.5371 24.4708C45.6397 24.7108 45.5044 24.9461 45.2337 25.0825C43.2831 26.3014 40.6651 27.0496 38.1777 27.0496C31.2571 27.0496 26.6184 22.1696 26.6184 14.8519C26.6184 7.5343 31.2571 2.6543 38.1777 2.6543C40.6651 2.6543 43.2831 3.39783 45.2337 4.62136C45.5044 4.75783 45.6351 4.99312 45.5371 5.23312L43.3204 9.94371C43.1851 10.2496 42.9517 10.3484 42.6811 10.2166C41.4397 9.50606 40.2264 9.26606 38.7844 9.26606C35.7604 9.26606 33.7444 11.5014 33.7444 14.8567C33.7444 18.2119 35.7604 20.4472 38.7844 20.4472C40.2311 20.4472 41.4397 20.2119 42.6811 19.4967C42.9517 19.3602 43.1851 19.4637 43.3204 19.7696L45.5371 24.4802V24.4708Z" fill="white"/>
<path d="M58.0344 3.1582C62.4351 3.1582 65.3611 5.80291 65.3611 9.76526C65.3611 12.2029 64.1851 14.0006 62.3698 14.5417C64.4884 15.0829 65.8651 17.1158 65.8651 19.93C65.8651 23.8923 62.9438 26.537 58.5758 26.537H47.9218C47.6558 26.537 47.4504 26.3017 47.4504 26.0617V3.66644C47.4504 3.43114 47.6511 3.1582 47.9218 3.1582H58.0391H58.0344ZM56.4898 12.3394C57.4978 12.3394 58.1698 11.7276 58.1698 10.7817C58.1698 9.83585 57.4978 9.22409 56.4898 9.22409H54.3711V12.3394H56.4898ZM57.0918 20.4711C58.0671 20.4711 58.7391 19.8264 58.7391 18.8429C58.7391 17.8594 58.0671 17.2147 57.0918 17.2147H54.3711V20.4664H57.0918V20.4711Z" fill="white"/>
<path d="M16.1093 36.3722C16.1327 36.4145 16.1093 36.4757 16.058 36.5181C15.6053 36.8051 14.98 37.0028 14.504 37.0028C12.9827 37.0028 11.9747 36.0193 11.9747 34.5463C11.9747 33.0734 12.9827 32.0898 14.504 32.0898C14.9847 32.0898 15.6053 32.2828 16.058 32.5745C16.1093 32.6169 16.1327 32.6781 16.1093 32.7204L15.624 33.7557C15.5913 33.8216 15.5307 33.8498 15.4747 33.8075C15.2647 33.6569 14.9473 33.5534 14.6673 33.5534C14.056 33.5534 13.65 33.9534 13.65 34.551C13.65 35.1487 14.0513 35.5487 14.6673 35.5487C14.9427 35.5487 15.2647 35.4451 15.4747 35.2945C15.5353 35.2522 15.5913 35.2757 15.624 35.3463L16.1093 36.3816V36.3722Z" fill="white"/>
<path d="M20.4776 36.391C20.4963 36.4522 20.4776 36.4851 20.417 36.5181C19.969 36.8145 19.325 36.9934 18.6763 36.9934C17.1876 36.9934 16.1983 36.0098 16.1983 34.5463C16.1983 33.0828 17.1736 32.0898 18.6343 32.0898C20.095 32.0898 20.851 32.9981 20.851 34.5369C20.851 34.664 20.8416 34.791 20.8183 34.9181C20.809 34.984 20.767 35.0216 20.6923 35.0216H17.995C17.995 35.0216 17.995 35.5534 18.6996 35.5534C19.129 35.5534 19.605 35.4498 19.9876 35.2757C20.0483 35.2522 20.095 35.2851 20.1136 35.3416L20.473 36.391H20.4776ZM19.185 34.1275C19.185 33.7557 18.9563 33.511 18.6203 33.511C18.2423 33.511 17.9903 33.7557 17.9903 34.1275H19.185Z" fill="white"/>
<path d="M23.987 32.2026C24.0523 32.2026 24.1037 32.2544 24.1037 32.3203V33.4215C24.1037 33.4873 24.0523 33.5391 23.987 33.5391H23.7677C23.4503 33.5391 23.161 33.685 23.0537 33.8968V36.7344C23.0537 36.8003 22.993 36.8615 22.9277 36.8615H21.4483C21.383 36.8615 21.3223 36.8003 21.3223 36.7344V32.3297C21.3223 32.2685 21.383 32.212 21.4483 32.212H22.3957C22.461 32.212 22.503 32.2732 22.531 32.3391L22.657 32.7109C22.909 32.3956 23.3197 32.2026 23.7677 32.2026H23.987Z" fill="white"/>
<path d="M27.314 32.2024C27.3887 32.2024 27.44 32.2541 27.44 32.32L27.3467 33.1435C27.3373 33.2094 27.286 33.2706 27.2207 33.2706H26.684V36.7341C26.684 36.8 26.6233 36.8612 26.558 36.8612H25.0787C25.0133 36.8612 24.9527 36.8 24.9527 36.7341V33.2706H24.472C24.4113 33.2706 24.3553 33.2188 24.3553 33.1529V32.3294C24.3553 32.2541 24.416 32.2024 24.472 32.2024H24.9527V31.28C24.9527 31.2188 25.0133 31.1718 25.0787 31.1624L26.558 31.0165C26.6233 31.0071 26.684 31.0777 26.684 31.1341V32.2024H27.314Z" fill="white"/>
<path d="M28.4574 36.9837C28.014 36.9837 27.72 36.7061 27.72 36.2872C27.72 35.8684 28.014 35.5767 28.4574 35.5767C28.9007 35.5767 29.1947 35.8637 29.1947 36.2872C29.1947 36.7108 28.9007 36.9837 28.4574 36.9837Z" fill="white"/>
<path d="M32.606 36.2542C32.4707 36.5271 32.0693 36.7013 31.598 36.7013C30.3707 36.7013 29.554 35.8118 29.554 34.4707C29.554 32.9695 30.31 32.0801 31.598 32.0801C32.2467 32.0801 32.76 32.2589 32.9747 32.5648L33.124 32.3295C33.1754 32.2542 33.25 32.2024 33.32 32.2024H34.2113C34.286 32.2024 34.3373 32.2542 34.3373 32.3295V36.4283C34.3373 37.7083 33.1847 38.5648 31.7567 38.5648C30.926 38.5648 30.184 38.3718 29.7733 38.033C29.722 37.9907 29.708 37.9295 29.722 37.8871L30.1513 36.8377C30.1747 36.7765 30.226 36.753 30.2773 36.786C30.6367 37.0824 31.192 37.2613 31.7567 37.2613C32.284 37.2613 32.606 36.9789 32.606 36.4989V36.2542ZM32.606 34.0518C32.606 34.0518 32.48 33.6707 32.0273 33.6707C31.6073 33.6707 31.3647 33.9671 31.3647 34.4754C31.3647 34.9836 31.6073 35.2895 32.0273 35.2895C32.48 35.2895 32.606 34.9083 32.606 34.9083V34.0518Z" fill="white"/>
<path d="M38.9387 36.3722C38.962 36.4145 38.9387 36.4757 38.8873 36.5181C38.4347 36.8051 37.8093 37.0028 37.3333 37.0028C35.812 37.0028 34.804 36.0193 34.804 34.5463C34.804 33.0734 35.812 32.0898 37.3333 32.0898C37.814 32.0898 38.4347 32.2828 38.8873 32.5745C38.9387 32.6169 38.962 32.6781 38.9387 32.7204L38.4533 33.7557C38.4207 33.8216 38.36 33.8498 38.304 33.8075C38.094 33.6569 37.772 33.5534 37.4967 33.5534C36.8853 33.5534 36.4793 33.9534 36.4793 34.551C36.4793 35.1487 36.8807 35.5487 37.4967 35.5487C37.772 35.5487 38.094 35.4451 38.304 35.2945C38.3647 35.2522 38.4207 35.2757 38.4533 35.3463L38.9387 36.3816V36.3722Z" fill="white"/>
<path d="M41.1503 32.4049C41.4023 32.2026 41.7803 32.0849 42.177 32.0849C43.507 32.0849 44.3937 33.0684 44.3937 34.532C44.3937 35.9955 43.5023 36.9885 42.177 36.9885C41.6123 36.9885 41.0757 36.7673 40.7583 36.4285L40.6323 36.7343C40.5997 36.8096 40.5577 36.8614 40.497 36.8614H39.545C39.4797 36.8614 39.419 36.8002 39.419 36.7343V30.8379C39.419 30.7767 39.4797 30.7202 39.545 30.7202H41.0243C41.0897 30.7202 41.1503 30.7814 41.1503 30.8379V32.4049ZM41.1503 35.0779C41.253 35.3555 41.519 35.5437 41.813 35.5437C42.275 35.5437 42.5877 35.139 42.5877 34.5273C42.5877 33.9155 42.275 33.5437 41.813 33.5437C41.519 33.5437 41.2483 33.732 41.1503 34.0096V35.0779Z" fill="white"/>
<path d="M45.4903 36.9837C45.047 36.9837 44.753 36.7061 44.753 36.2872C44.753 35.8684 45.047 35.5767 45.4903 35.5767C45.9337 35.5767 46.2277 35.8637 46.2277 36.2872C46.2277 36.7108 45.9337 36.9837 45.4903 36.9837Z" fill="white"/>
<path d="M50.7266 36.3722C50.75 36.4145 50.7266 36.4757 50.6753 36.5181C50.2226 36.8051 49.5973 37.0028 49.1213 37.0028C47.6 37.0028 46.592 36.0193 46.592 34.5463C46.592 33.0734 47.6 32.0898 49.1213 32.0898C49.602 32.0898 50.2226 32.2828 50.6753 32.5745C50.7266 32.6169 50.75 32.6781 50.7266 32.7204L50.2413 33.7557C50.2087 33.8216 50.148 33.8498 50.092 33.8075C49.882 33.6569 49.5646 33.5534 49.2846 33.5534C48.6733 33.5534 48.2673 33.9534 48.2673 34.551C48.2673 35.1487 48.6686 35.5487 49.2846 35.5487C49.5646 35.5487 49.882 35.4451 50.092 35.2945C50.1526 35.2522 50.2087 35.2757 50.2413 35.3463L50.7266 36.3816V36.3722Z" fill="white"/>
<path d="M58.1005 32.2026C58.1658 32.2026 58.2078 32.2638 58.1845 32.3203L56.8171 36.7438C56.7985 36.805 56.7331 36.8615 56.6678 36.8615H55.3658C55.3005 36.8615 55.2211 36.8003 55.1978 36.7438L54.5491 34.4897L53.9005 36.7438C53.8771 36.805 53.7978 36.8615 53.7325 36.8615H52.4305C52.3651 36.8615 52.2951 36.8003 52.2811 36.7438L50.9138 32.3203C50.8905 32.2591 50.9325 32.2026 50.9978 32.2026H52.6965C52.7711 32.2026 52.8411 32.2544 52.8551 32.3203L53.2938 34.1744L53.7465 32.3203C53.7651 32.2356 53.8398 32.2026 53.8958 32.2026H55.2071C55.3331 32.2026 55.3425 32.2356 55.3565 32.3203L55.8091 34.1744L56.2478 32.3203C56.2665 32.2544 56.3318 32.2026 56.4065 32.2026H58.1051H58.1005Z" fill="white"/>
</g>
<defs>
<clipPath id="clip0_4574_13328">
<rect width="70" height="40" fill="white"/>
</clipPath>
</defs>
</svg>
