<svg width="252" height="56" viewBox="0 0 252 56" fill="none" xmlns="http://www.w3.org/2000/svg">
<g clip-path="url(#clip0_4574_13207)">
<mask id="mask0_4574_13207" style="mask-type:luminance" maskUnits="userSpaceOnUse" x="0" y="0" width="252" height="56">
<path d="M252 0H0V56H252V0Z" fill="white"/>
</mask>
<g mask="url(#mask0_4574_13207)">
<path d="M130.79 16.1212L126.647 36.2942H138.307L136.876 43.2727H117.223L122.797 16.1212H130.79Z" fill="#4CA421"/>
<path fill-rule="evenodd" clip-rule="evenodd" d="M148.648 21.9114L153.589 24.1185L152.658 16.0129H160.234L164.494 43.2566H156.279L155.823 39.3919H146.961L144.869 43.2566H136.312L148.648 21.9114ZM151.563 30.5913C152.78 28.2954 153.731 26.3186 154.415 24.6605C154.44 26.089 154.53 27.4154 154.682 28.6398L155.214 33.4994H150.004L151.563 30.5913Z" fill="#4CA421"/>
<path d="M172.614 16.1212H184.848C185.861 16.1212 186.738 16.1593 187.48 16.2356C188.245 16.2865 189.048 16.439 189.889 16.6933C190.754 16.9475 191.459 17.3034 192.002 17.761C192.57 18.1931 193.04 18.8033 193.411 19.5914C193.781 20.3795 193.967 21.3201 193.967 22.4133C193.967 23.9896 193.522 25.3497 192.633 26.4937C191.743 27.6377 190.581 28.3369 189.148 28.5911C191.594 29.4809 192.817 31.3368 192.817 34.1586C192.817 36.7772 191.89 38.9635 190.038 40.7178C189.222 41.4804 188.245 42.0652 187.109 42.4719C185.996 42.8787 185.021 43.1202 184.181 43.1965C183.34 43.2473 182.203 43.2727 180.77 43.2727H166.98L172.614 16.1212ZM179.176 22.2989L178.287 26.4937H182.513C183.525 26.4937 184.341 26.3411 184.959 26.0361C185.576 25.7056 185.886 25.0573 185.886 24.0913C185.886 23.6591 185.786 23.3159 185.589 23.0617C185.416 22.782 185.132 22.604 184.736 22.5278C184.341 22.4261 184.02 22.3625 183.772 22.337C183.55 22.3117 183.204 22.2989 182.734 22.2989H179.176ZM177.211 31.7562L176.173 36.8281H180.696C182.228 36.8281 183.266 36.6374 183.81 36.256C184.551 35.7221 184.922 34.9722 184.922 34.0062C184.922 33.4722 184.811 33.0401 184.588 32.7096C184.365 32.379 184.02 32.1503 183.55 32.0232C183.105 31.8961 182.722 31.8198 182.401 31.7943C182.104 31.7689 181.66 31.7562 181.066 31.7562C180.943 31.7562 180.844 31.7562 180.77 31.7562H177.211Z" fill="#4CA421"/>
<path d="M225.17 16.1212L223.696 22.7184H208.798L208.042 26.1124H221.864L220.469 32.4045H206.647L205.771 36.3705H221.067L219.553 43.2727H195.653L201.668 16.1212H225.17Z" fill="#4CA421"/>
<path d="M235.906 16.1212L231.597 36.2942H243.723L242.237 43.2727H221.797L227.593 16.1212H235.906Z" fill="#4CA421"/>
<path d="M41.2189 16.1212H53.8087C54.8515 16.1212 55.7544 16.1593 56.5174 16.2356C57.3058 16.2865 58.1325 16.439 58.9972 16.6933C59.8874 16.9475 60.6123 17.3034 61.1719 17.761C61.7568 18.1931 62.24 18.8033 62.6215 19.5914C63.0031 20.3795 63.1938 21.3201 63.1938 22.4133C63.1938 23.9896 62.736 25.3497 61.8204 26.4937C60.9048 27.6377 59.7093 28.3369 58.2342 28.5911C60.7521 29.4809 62.0111 31.3368 62.0111 34.1586C62.0111 36.7772 61.0573 38.9635 59.1498 40.7178C58.3105 41.4804 57.3058 42.0652 56.1359 42.4719C54.9914 42.8787 53.9867 43.1202 53.122 43.1965C52.2572 43.2473 51.0873 43.2727 49.6121 43.2727H35.42L41.2189 16.1212ZM47.9717 22.2989L47.056 26.4937H51.4052C52.448 26.4937 53.2873 26.3411 53.9232 26.0361C54.559 25.7056 54.877 25.0573 54.877 24.0913C54.877 23.6591 54.7752 23.3159 54.5718 23.0617C54.3937 22.782 54.1012 22.604 53.6943 22.5278C53.2873 22.4261 52.9567 22.3625 52.7023 22.337C52.4735 22.3117 52.1173 22.2989 51.6341 22.2989H47.9717ZM45.9496 31.7562L44.8814 36.8281H49.5358C51.1127 36.8281 52.1809 36.6374 52.7405 36.256C53.5035 35.7221 53.885 34.9722 53.885 34.0062C53.885 33.4722 53.7706 33.0401 53.5416 32.7096C53.3127 32.379 52.9567 32.1503 52.4735 32.0232C52.0156 31.8961 51.6214 31.8198 51.2908 31.7943C50.9856 31.7689 50.5277 31.7562 49.9173 31.7562C49.7901 31.7562 49.6884 31.7562 49.6121 31.7562H45.9496Z" fill="white"/>
<path d="M92.0819 16.1212L90.6701 22.7184H76.402L75.6772 26.1124H88.9152L87.5802 32.4045H74.3419L73.5026 36.3705H88.1528L86.7031 43.2727H63.8123L69.5731 16.1212H92.0819Z" fill="white"/>
<path d="M118.067 16.1212L116.579 23.0235H109.101L104.79 43.2727H96.4731L100.784 23.0235H93.0779L94.5275 16.1212H118.067Z" fill="white"/>
<path d="M16.8667 28.4242L-0.210833 57.4492L-0.21083 -0.600731L16.8667 28.4242Z" fill="#4CA421"/>
</g>
</g>
<defs>
<clipPath id="clip0_4574_13207">
<rect width="252" height="56" fill="white"/>
</clipPath>
</defs>
</svg>
