<svg width="50" height="40" viewBox="0 0 50 40" fill="none" xmlns="http://www.w3.org/2000/svg">
<g clip-path="url(#clip0_4574_13293)">
<path d="M48.9777 38.9668V39.0682H49.071C49.0917 39.0682 49.1093 39.0633 49.1221 39.0554C49.1339 39.0475 49.1408 39.0337 49.1408 39.017C49.1408 39.0002 49.1339 38.9875 49.1221 38.9796C49.1093 38.9707 49.0917 38.9668 49.071 38.9668H48.9777ZM49.072 38.8958C49.1202 38.8958 49.1575 38.9067 49.184 38.9283C49.2105 38.95 49.2233 38.9796 49.2233 39.017C49.2233 39.0485 49.2135 39.0741 49.1919 39.0948C49.1712 39.1145 49.1418 39.1273 49.1025 39.1322L49.2263 39.275H49.13L49.015 39.1332H48.9777V39.275H48.8971V38.8958H49.072ZM49.0474 39.406C49.0917 39.406 49.1329 39.3972 49.1703 39.3804C49.2086 39.3637 49.242 39.341 49.2705 39.3125C49.299 39.2839 49.3216 39.2504 49.3383 39.211C49.354 39.1726 49.3628 39.1312 49.3628 39.0869C49.3628 39.0426 49.354 39.0012 49.3383 38.9628C49.3216 38.9244 49.299 38.8899 49.2705 38.8613C49.242 38.8328 49.2086 38.8102 49.1703 38.7934C49.1329 38.7777 49.0917 38.7698 49.0474 38.7698C49.0032 38.7698 48.961 38.7777 48.9226 38.7934C48.8833 38.8102 48.8489 38.8328 48.8204 38.8613C48.7919 38.8899 48.7693 38.9244 48.7536 38.9628C48.7369 39.0012 48.729 39.0426 48.729 39.0869C48.729 39.1312 48.7369 39.1726 48.7536 39.211C48.7693 39.2504 48.7919 39.2839 48.8204 39.3125C48.8489 39.341 48.8833 39.3637 48.9226 39.3804C48.961 39.3972 49.0032 39.406 49.0474 39.406ZM49.0474 38.6782C49.1054 38.6782 49.1585 38.689 49.2096 38.7107C49.2597 38.7313 49.3029 38.7609 49.3412 38.7983C49.3786 38.8348 49.4081 38.8781 49.4297 38.9283C49.4513 38.9776 49.4621 39.0308 49.4621 39.0869C49.4621 39.1431 49.4513 39.1962 49.4297 39.2455C49.4081 39.2947 49.3786 39.3381 49.3412 39.3755C49.3029 39.412 49.2597 39.4415 49.2096 39.4632C49.1585 39.4848 49.1054 39.4957 49.0474 39.4957C48.9885 39.4957 48.9344 39.4848 48.8833 39.4632C48.8322 39.4415 48.788 39.412 48.7507 39.3755C48.7133 39.3381 48.6838 39.2947 48.6622 39.2455C48.6406 39.1962 48.6298 39.1431 48.6298 39.0869C48.6298 39.0308 48.6406 38.9776 48.6622 38.9283C48.6838 38.8781 48.7133 38.8348 48.7507 38.7983C48.788 38.7609 48.8322 38.7313 48.8833 38.7107C48.9344 38.689 48.9885 38.6782 49.0474 38.6782ZM10.7603 37.2175C10.7603 36.4946 11.233 35.9007 12.0054 35.9007C12.7434 35.9007 13.2417 36.469 13.2417 37.2175C13.2417 37.9661 12.7434 38.5344 12.0054 38.5344C11.233 38.5344 10.7603 37.9405 10.7603 37.2175ZM14.0828 37.2175V35.161H13.1905V35.6603C12.9075 35.29 12.4781 35.0576 11.8943 35.0576C10.7436 35.0576 9.84147 35.9617 9.84147 37.2175C9.84147 38.4743 10.7436 39.3775 11.8943 39.3775C12.4781 39.3775 12.9075 39.145 13.1905 38.7747V39.274H14.0828V37.2175ZM44.2361 37.2175C44.2361 36.4946 44.7088 35.9007 45.4812 35.9007C46.2202 35.9007 46.7174 36.469 46.7174 37.2175C46.7174 37.9661 46.2202 38.5344 45.4812 38.5344C44.7088 38.5344 44.2361 37.9405 44.2361 37.2175ZM47.5596 37.2175V33.5093H46.6663V35.6603C46.3833 35.29 45.9538 35.0576 45.3702 35.0576C44.2194 35.0576 43.3173 35.9617 43.3173 37.2175C43.3173 38.4743 44.2194 39.3775 45.3702 39.3775C45.9538 39.3775 46.3833 39.145 46.6663 38.7747V39.274H47.5596V37.2175ZM25.1589 35.8583C25.7338 35.8583 26.1033 36.2198 26.1976 36.8561H24.0681C24.1634 36.2622 24.5231 35.8583 25.1589 35.8583ZM25.1766 35.0576C23.9738 35.0576 23.1325 35.9352 23.1325 37.2175C23.1325 38.5255 24.0082 39.3775 25.2365 39.3775C25.8547 39.3775 26.4207 39.2228 26.9189 38.8013L26.4816 38.1384C26.1377 38.4132 25.6994 38.5688 25.2876 38.5688C24.7127 38.5688 24.189 38.3019 24.0602 37.5613H27.1076C27.1164 37.45 27.1253 37.3377 27.1253 37.2175C27.1164 35.9352 26.3263 35.0576 25.1766 35.0576ZM35.9509 37.2175C35.9509 36.4946 36.4236 35.9007 37.196 35.9007C37.934 35.9007 38.4323 36.469 38.4323 37.2175C38.4323 37.9661 37.934 38.5344 37.196 38.5344C36.4236 38.5344 35.9509 37.9405 35.9509 37.2175ZM39.2735 37.2175V35.161H38.3812V35.6603C38.0972 35.29 37.6687 35.0576 37.085 35.0576C35.9342 35.0576 35.0321 35.9617 35.0321 37.2175C35.0321 38.4743 35.9342 39.3775 37.085 39.3775C37.6687 39.3775 38.0972 39.145 38.3812 38.7747V39.274H39.2735V37.2175ZM30.9117 37.2175C30.9117 38.4654 31.7784 39.3775 33.1011 39.3775C33.7192 39.3775 34.131 39.2396 34.5771 38.887L34.1487 38.164C33.8135 38.4053 33.4617 38.5344 33.0745 38.5344C32.3621 38.5255 31.8383 38.0094 31.8383 37.2175C31.8383 36.4257 32.3621 35.9095 33.0745 35.9007C33.4617 35.9007 33.8135 36.0297 34.1487 36.271L34.5771 35.5481C34.131 35.1955 33.7192 35.0576 33.1011 35.0576C31.7784 35.0576 30.9117 35.9697 30.9117 37.2175ZM42.4162 35.0576C41.9012 35.0576 41.5661 35.2989 41.3342 35.6603V35.161H40.4497V39.274H41.343V36.9683C41.343 36.2878 41.6349 35.9095 42.2186 35.9095C42.3994 35.9095 42.5881 35.9352 42.7768 36.013L43.052 35.1698C42.8544 35.092 42.597 35.0576 42.4162 35.0576ZM18.4962 35.488C18.0667 35.2043 17.4752 35.0576 16.8226 35.0576C15.7829 35.0576 15.1137 35.557 15.1137 36.3744C15.1137 37.0452 15.6119 37.4588 16.5298 37.5878L16.9513 37.648C17.4407 37.7169 17.6717 37.8459 17.6717 38.0783C17.6717 38.3965 17.3454 38.5777 16.7362 38.5777C16.118 38.5777 15.6718 38.3797 15.3712 38.1473L14.9506 38.8437C15.44 39.2051 16.0581 39.3775 16.7273 39.3775C17.9124 39.3775 18.5993 38.818 18.5993 38.035C18.5993 37.3121 18.0588 36.9338 17.1656 36.8048L16.745 36.7438C16.3588 36.6926 16.0492 36.6157 16.0492 36.34C16.0492 36.0386 16.3411 35.8583 16.8305 35.8583C17.3543 35.8583 17.8613 36.0563 18.11 36.2109L18.4962 35.488ZM30.0095 35.0576C29.4946 35.0576 29.1595 35.2989 28.9285 35.6603V35.161H28.0441V39.274H28.9364V36.9683C28.9364 36.2878 29.2283 35.9095 29.812 35.9095C29.9928 35.9095 30.1815 35.9352 30.3702 36.013L30.6453 35.1698C30.4478 35.092 30.1903 35.0576 30.0095 35.0576ZM22.3945 35.161H20.9352V33.9131H20.0331V35.161H19.2008V35.9785H20.0331V37.8548C20.0331 38.8092 20.4026 39.3775 21.458 39.3775C21.8452 39.3775 22.2913 39.2573 22.5744 39.0593L22.3169 38.2931C22.0506 38.4477 21.7587 38.5255 21.5268 38.5255C21.0807 38.5255 20.9352 38.2497 20.9352 37.837V35.9785H22.3945V35.161ZM9.05241 39.274V36.6926C9.05241 35.7205 8.43428 35.0665 7.43778 35.0576C6.91403 35.0487 6.37353 35.2122 5.9952 35.7894C5.71218 35.3333 5.26603 35.0576 4.63907 35.0576C4.20078 35.0576 3.77233 35.1866 3.43723 35.6682V35.161H2.54395V39.274H3.44508V36.994C3.44508 36.2799 3.84013 35.9007 4.45039 35.9007C5.04296 35.9007 5.34268 36.2878 5.34268 36.9851V39.274H6.24481V36.994C6.24481 36.2799 6.65653 35.9007 7.24916 35.9007C7.85841 35.9007 8.15028 36.2878 8.15028 36.9851V39.274H9.05241Z" fill="white"/>
<path d="M49.5277 25.594V24.9932H49.3714L49.1906 25.4059L49.0108 24.9932H48.8535V25.594H48.9646V25.1409L49.1336 25.5319H49.2486L49.4176 25.1399V25.594H49.5277ZM48.5361 25.594V25.0956H48.7366V24.9942H48.2256V25.0956H48.4261V25.594H48.5361Z" fill="#F79410"/>
<path d="M31.7609 28.1791H18.2373V3.81982H31.7609V28.1791Z" fill="#FF5F00"/>
<path d="M19.1038 15.9964C19.1038 11.0549 21.4121 6.65329 25.0069 3.8167C22.3781 1.74245 19.0605 0.504395 15.455 0.504395C6.91919 0.504395 0 7.44023 0 15.9964C0 24.5524 6.91919 31.4882 15.455 31.4882C19.0605 31.4882 22.3781 30.2502 25.0069 28.1759C21.4121 25.3394 19.1038 20.9377 19.1038 15.9964Z" fill="#EB001B"/>
<path d="M50.0001 15.9968C50.0001 24.5529 43.0808 31.4887 34.5451 31.4887C30.9395 31.4887 27.6219 30.2507 24.9922 28.1764C28.5879 25.3398 30.8963 20.9382 30.8963 15.9968C30.8963 11.0554 28.5879 6.65378 24.9922 3.81719C27.6219 1.74294 30.9395 0.504883 34.5451 0.504883C43.0808 0.504883 50.0001 7.44072 50.0001 15.9968Z" fill="#F79E1B"/>
</g>
<defs>
<clipPath id="clip0_4574_13293">
<rect width="50" height="40" fill="white"/>
</clipPath>
</defs>
</svg>
