<svg width="140" height="40" viewBox="0 0 140 40" fill="none" xmlns="http://www.w3.org/2000/svg">
<path d="M49.6152 8.0673C49.1141 8.0673 48.6611 7.9554 48.256 7.73152C47.8578 7.50086 47.5386 7.19218 47.2983 6.80548C47.0649 6.412 46.9482 5.97441 46.9482 5.49273C46.9482 5.01105 47.0649 4.58026 47.2983 4.20034C47.5317 3.81364 47.851 3.50836 48.256 3.28448C48.6611 3.05381 49.1107 2.93848 49.6049 2.93848C50.113 2.93848 50.566 3.05381 50.9642 3.28448C51.3693 3.50836 51.6884 3.81364 51.9219 4.20034C52.1553 4.58026 52.272 5.01105 52.272 5.49273C52.272 5.97441 52.1553 6.412 51.9219 6.80548C51.6884 7.19218 51.3693 7.50086 50.9642 7.73152C50.566 7.9554 50.1164 8.0673 49.6152 8.0673ZM49.6049 6.82583C49.859 6.82583 50.0821 6.77156 50.2743 6.663C50.4733 6.54768 50.6244 6.39164 50.7274 6.1949C50.8373 5.99137 50.8921 5.76071 50.8921 5.50291C50.8921 5.24511 50.8373 5.01784 50.7274 4.82109C50.6175 4.62436 50.4665 4.47171 50.2743 4.36316C50.0821 4.24783 49.859 4.19016 49.6049 4.19016C49.3579 4.19016 49.1381 4.24783 48.9459 4.36316C48.7537 4.47171 48.6027 4.62436 48.4928 4.82109C48.383 5.01784 48.328 5.24511 48.328 5.50291C48.328 5.76071 48.383 5.99137 48.4928 6.1949C48.6027 6.39164 48.7537 6.54768 48.9459 6.663C49.1381 6.77156 49.3579 6.82583 49.6049 6.82583Z" fill="white"/>
<path fill-rule="evenodd" clip-rule="evenodd" d="M58.0003 7.96575H56.6617V7.51922C56.5314 7.64661 56.3804 7.75474 56.2087 7.84362C55.9203 7.99288 55.5976 8.06747 55.2407 8.06747C54.7807 8.06747 54.3689 7.95557 54.005 7.73169C53.6412 7.50781 53.3528 7.20252 53.14 6.81582C52.9341 6.42912 52.8311 5.99493 52.8311 5.51325C52.8311 5.02479 52.9341 4.58721 53.14 4.20051C53.3528 3.81381 53.6377 3.50852 53.9947 3.28464C54.3586 3.06076 54.7739 2.94882 55.2407 2.94882C55.5976 2.94882 55.9169 3.02006 56.1984 3.16253C56.3701 3.24737 56.5211 3.35267 56.6514 3.47842V2.44345C56.6514 1.7072 57.2554 1.11035 58.0003 1.11035C58.0003 3.56284 58.0003 5.51326 58.0003 7.96575ZM56.1263 6.67335C55.9409 6.7819 55.7212 6.83618 55.4672 6.83618C55.227 6.83618 55.0107 6.7819 54.8185 6.67335C54.6263 6.55802 54.4752 6.40198 54.3654 6.20524C54.2624 6.00171 54.2109 5.76766 54.2109 5.50307C54.2109 5.24528 54.2624 5.01801 54.3654 4.82126C54.4752 4.62452 54.6229 4.46849 54.8082 4.35315C55.0004 4.23782 55.2235 4.18015 55.4775 4.18015C55.7247 4.18015 55.9409 4.23782 56.1263 4.35315C56.3185 4.4617 56.4661 4.61774 56.569 4.82126C56.6789 5.01801 56.7338 5.24528 56.7338 5.50307C56.7338 5.76766 56.6789 6.00171 56.569 6.20524C56.4661 6.40198 56.3185 6.55802 56.1263 6.67335Z" fill="white"/>
<path fill-rule="evenodd" clip-rule="evenodd" d="M60.0484 7.73159C60.4123 7.95547 60.8208 8.06745 61.2738 8.06745C61.6308 8.06745 61.95 7.99618 62.2315 7.85371C62.4186 7.7545 62.5799 7.6328 62.7154 7.48862V7.96564H64.0541V3.05048H62.7154V3.52299C62.5799 3.37733 62.4186 3.25714 62.2315 3.16243C61.95 3.01997 61.6308 2.94873 61.2738 2.94873C60.8208 2.94873 60.4123 3.06067 60.0484 3.28455C59.6846 3.50843 59.3997 3.81372 59.1938 4.20042C58.9878 4.58711 58.8848 5.0247 58.8848 5.51316C58.8848 5.99484 58.9878 6.42903 59.1938 6.81573C59.3997 7.20243 59.6846 7.50771 60.0484 7.73159ZM62.4374 6.46974C62.204 6.71397 61.8985 6.83608 61.521 6.83608C61.2738 6.83608 61.0542 6.78181 60.862 6.67326C60.6766 6.55793 60.529 6.40189 60.4192 6.20515C60.3162 6.00163 60.2647 5.76757 60.2647 5.50299C60.2647 5.24519 60.3162 5.01791 60.4192 4.82117C60.529 4.61765 60.6766 4.46161 60.862 4.35307C61.0542 4.23773 61.2738 4.18007 61.521 4.18007C61.775 4.18007 61.9947 4.23773 62.18 4.35307C62.3722 4.46161 62.5198 4.61765 62.6228 4.82117C62.7327 5.01791 62.7875 5.24519 62.7875 5.50299C62.7875 5.89647 62.6709 6.21872 62.4374 6.46974Z" fill="white"/>
<path d="M44.8417 6.63255C44.8417 7.3688 45.4456 7.96565 46.1906 7.96565V4.8517C46.1906 4.51927 46.1083 4.21059 45.9435 3.92566C45.7787 3.63394 45.5522 3.39988 45.2638 3.22349C44.9755 3.04032 44.6494 2.94873 44.2856 2.94873C43.908 2.94873 43.5682 3.03015 43.2662 3.19296C43.1076 3.28043 42.9668 3.38651 42.8438 3.51119V3.05051H41.4949V6.63256C41.4949 7.36881 42.0989 7.96566 42.8438 7.96566V5.14678C42.8438 4.95003 42.8851 4.77707 42.9675 4.62783C43.0567 4.47857 43.1769 4.36324 43.3279 4.28183C43.479 4.20042 43.6506 4.15971 43.8428 4.15971C44.138 4.15971 44.3783 4.2513 44.5636 4.43447C44.749 4.61765 44.8417 4.85509 44.8417 5.14682V6.63255Z" fill="white"/>
<path fill-rule="evenodd" clip-rule="evenodd" d="M12.5949 2.92888H9.75178C9.71099 2.92888 9.66899 2.92884 9.62602 2.9288H9.62522C9.05162 2.92825 8.29699 2.92753 7.63672 3.01838C6.81798 3.13104 5.60772 3.44321 4.57414 4.501C3.54057 5.55879 3.23554 6.7974 3.12546 7.6353C3.03669 8.31109 3.0374 9.08333 3.03793 9.67037V9.67125C3.03797 9.71525 3.03801 9.75813 3.03801 9.79997V12.745H6.8136V9.79997C6.8136 8.38245 6.8136 7.67365 7.24389 7.23328C7.67419 6.79291 8.36674 6.79291 9.75178 6.79291H12.5949V2.92888ZM32.8902 12.745V9.79997C32.8902 8.38245 32.8902 7.67365 32.4599 7.23328C32.0296 6.79291 31.337 6.79291 29.952 6.79291H27.0697V2.92888H29.952C29.9928 2.92888 30.0347 2.92884 30.0777 2.9288H30.0786C30.6522 2.92825 31.4067 2.92753 32.0671 3.01838C32.8858 3.13104 34.096 3.44321 35.1296 4.501C36.1632 5.55879 36.4682 6.7974 36.5783 7.6353C36.6671 8.31109 36.6664 9.08333 36.6658 9.67037L36.6657 9.73877V9.74901V9.79997V12.745H32.8902ZM27.0697 33.1044H29.952C31.337 33.1044 32.0296 33.1044 32.4599 32.664C32.8902 32.2236 32.8902 31.5149 32.8902 30.0974V27.1371H36.6657V30.0974V30.1605L36.6658 30.2269C36.6664 30.814 36.6671 31.5862 36.5783 32.262C36.4682 33.0999 36.1632 34.3385 35.1296 35.3963C34.096 36.454 32.8858 36.7663 32.0671 36.8789C31.4083 36.9696 30.6554 36.969 30.0822 36.9685H30.0786C30.0353 36.9684 29.993 36.9684 29.952 36.9684H27.0697V33.1044ZM6.8136 27.1371V30.0974C6.8136 31.5149 6.8136 32.2236 7.24389 32.664C7.67419 33.1044 8.36674 33.1044 9.75178 33.1044H12.5949V36.9684H9.75178H9.69996C9.67542 36.9684 9.65048 36.9684 9.62514 36.9685H9.62152C9.0484 36.969 8.29562 36.9696 7.63672 36.8789C6.81798 36.7663 5.60772 36.454 4.57414 35.3963C3.54057 34.3385 3.23554 33.0999 3.12546 32.262C3.03669 31.5862 3.0374 30.814 3.03793 30.2269C3.03797 30.1828 3.03801 30.1392 3.03801 30.0974V27.1371H6.8136Z" fill="white"/>
<path d="M29.4187 14.4078C29.4187 16.7359 27.5542 18.6232 25.2543 18.6232C22.9544 18.6232 21.0899 16.7359 21.0899 14.4078C21.0899 12.0797 22.9544 10.1924 25.2543 10.1924C27.5542 10.1924 29.4187 12.0797 29.4187 14.4078Z" fill="white"/>
<path d="M25.2543 21.5732C22.9544 21.5732 21.0899 23.4606 21.0899 25.7886V29.5824H29.4187V25.7886C29.4187 23.4606 27.5542 21.5732 25.2543 21.5732Z" fill="white"/>
<path opacity="0.3" d="M10.2849 25.7014C10.2849 23.4897 12.0562 21.6968 14.2411 21.6968H18.1972V29.706H14.2411C12.0562 29.706 10.2849 27.913 10.2849 25.7014Z" fill="white"/>
<path opacity="0.3" d="M10.2849 10.3149H14.8658C16.7057 10.3149 18.1972 11.8247 18.1972 13.6872V18.3241H10.2849V10.3149Z" fill="white"/>
<path d="M132.943 28.5C133.918 28.5 134.65 28.7688 135.137 29.3065C135.626 29.8442 135.87 30.619 135.87 31.6311V37.0394H132.704V32.0106C132.704 31.6522 132.608 31.3675 132.418 31.1567C132.238 30.9353 131.978 30.8246 131.639 30.8246C131.246 30.8246 130.928 30.9511 130.685 31.2042C130.44 31.4571 130.319 31.7682 130.319 32.1371V37.0394H127.153V28.6898H129.746L129.953 29.9549C130.282 29.5121 130.711 29.1589 131.241 28.8954C131.782 28.6318 132.349 28.5 132.943 28.5Z" fill="white"/>
<path d="M121.205 28.5C122.679 28.5 123.835 28.8742 124.672 29.6227C125.52 30.3607 125.945 31.4414 125.945 32.8646C125.945 34.2878 125.52 35.3737 124.672 36.1222C123.835 36.8602 122.679 37.2292 121.205 37.2292C119.731 37.2292 118.575 36.8602 117.738 36.1222C116.9 35.3842 116.482 34.2983 116.482 32.8646C116.482 31.4308 116.9 30.3449 117.738 29.607C118.575 28.869 119.731 28.5 121.205 28.5ZM121.205 30.6348C120.166 30.6348 119.646 31.2305 119.646 32.4218V33.3232C119.646 34.5039 120.166 35.0943 121.205 35.0943C122.255 35.0943 122.779 34.5039 122.779 33.3232V32.4218C122.779 31.2305 122.255 30.6348 121.205 30.6348Z" fill="white"/>
<path d="M111.996 27.7091V25.5742H115.161V27.7091H111.996ZM111.996 37.0392V28.6896H115.161V37.0392H111.996Z" fill="white"/>
<path d="M110.734 28.6899V30.8247H108.953V34.0033C108.953 34.3829 109.017 34.6622 109.144 34.8414C109.271 35.0101 109.504 35.0945 109.844 35.0945H110.734V36.9446C110.48 37.029 110.151 37.0975 109.748 37.1502C109.346 37.2029 108.996 37.2293 108.699 37.2293C107.765 37.2293 107.044 37.0606 106.535 36.7233C106.037 36.3859 105.788 35.8113 105.788 34.9996V30.8247H104.611V28.6899H105.915L106.599 26.1597H108.953V28.6899H110.734Z" fill="white"/>
<path d="M99.2608 28.5C100.544 28.5 101.589 28.7161 102.394 29.1483C103.2 29.5701 103.602 30.2606 103.602 31.2199V34.4776C103.602 34.6568 103.645 34.8044 103.73 34.9203C103.815 35.0363 103.942 35.0943 104.112 35.0943H104.685V36.9129C104.652 36.934 104.568 36.9709 104.43 37.0236C104.302 37.0658 104.117 37.1079 103.874 37.1501C103.629 37.2028 103.348 37.2292 103.03 37.2292C102.416 37.2292 101.906 37.1395 101.503 36.9603C101.111 36.7706 100.841 36.5122 100.692 36.1854C100.289 36.5018 99.8385 36.7547 99.3405 36.9445C98.8424 37.1343 98.2591 37.2292 97.5905 37.2292C95.6184 37.2292 94.6328 36.449 94.6328 34.8887C94.6328 34.077 94.85 33.4602 95.2845 33.0386C95.7302 32.6063 96.3659 32.3111 97.193 32.153C98.0201 31.9948 99.1015 31.9158 100.438 31.9158V31.5046C100.438 31.1778 100.321 30.93 100.088 30.7614C99.865 30.5926 99.5738 30.5083 99.2133 30.5083C98.8842 30.5083 98.5978 30.5663 98.354 30.6822C98.1207 30.7982 98.004 30.9827 98.004 31.2358V31.299H94.887C94.8765 31.2463 94.8709 31.1725 94.8709 31.0776C94.8709 30.287 95.2475 29.6597 96.0006 29.1958C96.7641 28.7319 97.8503 28.5 99.2608 28.5ZM100.438 33.4022C99.5368 33.4022 98.8682 33.5024 98.4337 33.7027C98.0096 33.8925 97.7972 34.1507 97.7972 34.4776C97.7972 35.0047 98.1585 35.2682 98.8794 35.2682C99.293 35.2682 99.6534 35.1576 99.9608 34.9362C100.279 34.7148 100.438 34.4406 100.438 34.1138V33.4022Z" fill="white"/>
<path d="M89.1615 28.5C90.5398 28.5 91.6533 28.7952 92.5014 29.3855C93.3607 29.9654 93.7895 30.8562 93.7895 32.0581H90.72C90.72 31.1093 90.201 30.6348 89.1615 30.6348C88.1227 30.6348 87.603 31.2305 87.603 32.4218V33.3232C87.603 34.5039 88.1437 35.0943 89.225 35.0943C90.3064 35.0943 90.8471 34.6094 90.8471 33.6394H93.7895C93.7895 34.8518 93.3607 35.7532 92.5014 36.3436C91.6533 36.934 90.5398 37.2292 89.1615 37.2292C87.6875 37.2292 86.532 36.8602 85.6945 36.1222C84.8569 35.3842 84.4377 34.2983 84.4377 32.8646C84.4377 31.4308 84.8569 30.3449 85.6945 29.607C86.532 28.869 87.6875 28.5 89.1615 28.5Z" fill="white"/>
<path d="M77.8534 25.3848C78.0655 25.3848 78.3253 25.4164 78.6327 25.4796C78.9403 25.5324 79.1894 25.5956 79.3803 25.6694V27.5196H78.8077C78.4684 27.5196 78.2404 27.5829 78.1238 27.7094C78.0072 27.836 77.9488 28.052 77.9488 28.3578V28.6899H79.3803V30.8247H77.9488V37.0395H74.7839V30.8247H73.7023V28.6899H74.7839V28.342C74.7839 27.2666 75.0489 26.5076 75.5791 26.0648C76.1092 25.6115 76.8674 25.3848 77.8534 25.3848ZM80.0483 27.7094V25.5745H83.2131V27.7094H80.0483ZM80.0483 37.0395V28.6899H83.2131V37.0395H80.0483Z" fill="white"/>
<path d="M69.6621 27.7091V25.5742H72.8272V27.7091H69.6621ZM69.6621 37.0392V28.6896H72.8272V37.0392H69.6621Z" fill="white"/>
<path d="M67.9072 28.4844C68.151 28.4844 68.3684 28.516 68.5592 28.5793C68.7501 28.632 68.8455 28.6636 68.8455 28.6741V31.315H67.8276C67.1702 31.315 66.6931 31.4837 66.3962 31.8211C66.1099 32.1585 65.9668 32.6592 65.9668 33.3234V37.0396H62.8018V28.69H65.3943L65.601 29.9551C65.7918 29.4701 66.094 29.1064 66.5076 28.8639C66.9211 28.6109 67.3876 28.4844 67.9072 28.4844Z" fill="white"/>
<path d="M56.8545 28.5C58.392 28.5 59.5636 28.8584 60.3695 29.5753C61.1859 30.2922 61.5941 31.3886 61.5941 32.8646V33.4022H55.2958C55.2958 34.0032 55.4284 34.4565 55.6935 34.7622C55.9692 35.0679 56.3986 35.2208 56.9818 35.2208C57.5119 35.2208 57.8989 35.1102 58.1428 34.8887C58.3972 34.6674 58.5245 34.3722 58.5245 34.0032H61.5941C61.5941 35.0152 61.207 35.8059 60.433 36.3752C59.659 36.9445 58.5298 37.2292 57.0453 37.2292C55.4868 37.2292 54.278 36.8707 53.4191 36.1538C52.5603 35.4264 52.1309 34.33 52.1309 32.8646C52.1309 31.4308 52.5497 30.3449 53.3873 29.607C54.225 28.869 55.3807 28.5 56.8545 28.5ZM56.9818 30.5083C55.985 30.5083 55.4284 30.9774 55.3118 31.9158H58.3972C58.3972 31.4835 58.27 31.1409 58.0155 30.8878C57.7717 30.6348 57.427 30.5083 56.9818 30.5083Z" fill="white"/>
<path d="M44.4557 37.0395L40.5751 26.1597H44.3285L46.5234 33.434H46.5869L48.7977 26.1597H52.3922L48.5273 37.0395H44.4557Z" fill="white"/>
<path d="M102.243 22.1626C101.807 23.3328 101.272 24.2183 100.636 24.8193C100.011 25.4307 99.1304 25.7365 97.996 25.7365C97.3064 25.7365 96.6973 25.6416 96.1671 25.4518V23.57H97.4392C98.2341 23.57 98.7064 23.1852 98.8545 22.4156L95.5146 14.0659H98.918L100.525 19.6166H100.636L102.116 14.0659H105.233L102.243 22.1626Z" fill="white"/>
<path d="M95.3183 14.0663V16.2012H93.5369V19.3797C93.5369 19.7593 93.6013 20.0386 93.7284 20.2178C93.8555 20.3865 94.0889 20.4709 94.4276 20.4709H95.3183V22.3211C95.064 22.4054 94.7358 22.474 94.3327 22.5266C93.9296 22.5793 93.5796 22.6057 93.2827 22.6057C92.3501 22.6057 91.6284 22.437 91.1199 22.0997C90.6219 21.7623 90.3724 21.1877 90.3724 20.376V16.2012H89.1953V14.0663H90.4996L91.1835 11.5361H93.5369V14.0663H95.3183Z" fill="white"/>
<path d="M84.8525 13.0855V10.9507H88.0178V13.0855H84.8525ZM84.8525 22.4156V14.066H88.0178V22.4156H84.8525Z" fill="white"/>
<path d="M83.5909 14.0663V16.2012H81.8095V19.3797C81.8095 19.7593 81.8731 20.0386 82.0002 20.2178C82.1282 20.3865 82.3615 20.4709 82.7002 20.4709H83.5909V22.3211C83.3367 22.4054 83.0076 22.474 82.6053 22.5266C82.2022 22.5793 81.8522 22.6057 81.5553 22.6057C80.622 22.6057 79.9012 22.437 79.3923 22.0997C78.8939 21.7623 78.6447 21.1877 78.6447 20.376V16.2012H77.4678V14.0663H78.772L79.4559 11.5361H81.8095V14.0663H83.5909Z" fill="white"/>
<path d="M73.4924 13.876C74.4679 13.876 75.1995 14.1448 75.6872 14.6825C76.175 15.2201 76.4189 15.995 76.4189 17.0071V22.4154H73.2538V17.3866C73.2538 17.0282 73.1584 16.7436 72.9675 16.5327C72.7873 16.3113 72.5275 16.2006 72.1882 16.2006C71.7959 16.2006 71.4778 16.3271 71.2339 16.5801C70.9901 16.8332 70.8681 17.1441 70.8681 17.5132V22.4154H67.7031V14.0657H70.2955L70.5023 15.3309C70.831 14.8881 71.2604 14.5349 71.7906 14.2713C72.3313 14.0077 72.8986 13.876 73.4924 13.876Z" fill="white"/>
<path d="M61.755 13.876C63.2924 13.876 64.464 14.2345 65.2698 14.9513C66.0863 15.6682 66.4945 16.7646 66.4945 18.2405V18.7782H60.1963C60.1963 19.3792 60.3288 19.8325 60.5939 20.1382C60.8696 20.444 61.299 20.5969 61.8822 20.5969C62.4123 20.5969 62.7993 20.4861 63.0432 20.2647C63.2977 20.0433 63.4249 19.7481 63.4249 19.3792H66.4945C66.4945 20.3913 66.1075 21.1819 65.3335 21.7513C64.5595 22.3205 63.4302 22.6052 61.9458 22.6052C60.3871 22.6052 59.1784 22.2467 58.3196 21.5298C57.4607 20.8024 57.0312 19.706 57.0312 18.2405C57.0312 16.8068 57.4501 15.7209 58.2877 14.9829C59.1254 14.2449 60.2811 13.876 61.755 13.876ZM61.8822 15.8843C60.8855 15.8843 60.3288 16.3535 60.2122 17.2917H63.2977C63.2977 16.8595 63.1705 16.5169 62.916 16.2638C62.6721 16.0109 62.3275 15.8843 61.8822 15.8843Z" fill="white"/>
<path d="M53.2303 22.4156L52.9599 21.2296C52.345 22.1468 51.4543 22.6054 50.288 22.6054C49.1535 22.6054 48.2787 22.2364 47.6637 21.4984C47.0487 20.7604 46.7412 19.6693 46.7412 18.225C46.7412 16.7912 47.0487 15.7106 47.6637 14.9832C48.2787 14.2452 49.1535 13.8762 50.288 13.8762C51.2528 13.8762 52.0375 14.1977 52.6419 14.8408V10.9507H55.8069V22.4156H53.2303ZM51.2741 16.2008C50.3622 16.2008 49.9063 16.7438 49.9063 17.8296V18.6678C49.9063 19.7431 50.3622 20.2808 51.2741 20.2808C51.7406 20.2808 52.0905 20.1173 52.3238 19.7905C52.557 19.4637 52.6737 19.0368 52.6737 18.5096V17.9878C52.6737 17.4607 52.557 17.0336 52.3238 16.7068C52.0905 16.3695 51.7406 16.2008 51.2741 16.2008Z" fill="white"/>
<path d="M41.6407 22.416V11.5361H45.1556V22.416H41.6407Z" fill="white"/>
</svg>
