<svg width="130" height="40" viewBox="0 0 130 40" fill="none" xmlns="http://www.w3.org/2000/svg">
<g clip-path="url(#clip0_4574_13288)">
<path fill-rule="evenodd" clip-rule="evenodd" d="M46.2288 39.3599L52.7513 0.67474H63.3222L56.7997 39.3599H46.2288ZM94.8101 1.57439C92.7859 0.899654 89.6371 0 85.3637 0C75.0177 0 67.8205 5.17301 67.5956 12.8201C67.5956 18.218 72.9935 21.3668 76.817 23.1661C81.0904 25.1903 82.4399 26.3149 82.4399 28.1142C82.4399 30.5882 79.0662 31.7128 76.1423 31.7128C71.8689 31.7128 69.6198 31.263 66.2461 29.6886L64.6717 29.2388L63.3222 37.7855C65.7963 38.91 70.2945 39.8097 75.0177 39.8097C86.0385 39.8097 93.2357 34.6367 93.4606 26.7647C93.4606 22.2664 90.5367 18.8927 84.4641 16.1938C80.8655 14.3945 78.6163 13.2699 78.6163 11.4706C78.6163 9.89619 80.6405 8.09689 84.689 8.09689C88.0627 8.09689 90.5367 8.77163 92.561 9.44637L93.4606 9.89619L94.8101 1.57439ZM122.025 0.67474H113.703C111.229 0.67474 109.429 1.34948 108.305 3.82353L92.561 39.3599H103.582C103.582 39.3599 105.381 34.6367 105.831 33.5121H119.326C119.775 34.8616 120.675 39.3599 120.675 39.3599H130.346L122.025 0.67474ZM108.98 25.6401C109.879 23.391 113.028 14.8443 113.028 14.8443C113.028 14.8443 113.928 12.5952 114.602 11.0208L115.277 14.3945C115.277 14.3945 117.301 23.6159 117.751 25.6401H108.98ZM37.2322 0.67474L27.1111 26.9896L25.9866 21.5917C23.9623 15.519 18.1146 8.77163 11.3672 5.39792L20.8136 39.3599H31.8343L48.4779 0.67474H37.2322Z" fill="#01549A"/>
<path fill-rule="evenodd" clip-rule="evenodd" d="M17.445 0.673828H0.576476L0.351562 1.57348C13.6215 4.72227 22.3931 12.3693 25.9917 21.5908L22.1682 4.04753C21.7183 1.57348 19.6941 0.673828 17.445 0.673828Z" fill="#F7A707"/>
</g>
<defs>
<clipPath id="clip0_4574_13288">
<rect width="130" height="40" fill="white"/>
</clipPath>
</defs>
</svg>
